{
	"asset":{
		"generator":"Khronos glTF Blender I/O v4.4.56",
		"version":"2.0"
	},
	"extensionsUsed":[
		"KHR_implicit_shapes",
		"KHR_physics_rigid_bodies",
		"KHR_lights_punctual"
	],
	"extensionsRequired":[
		"KHR_lights_punctual"
	],
	"extensions":{
		"KHR_implicit_shapes":{
			"shapes":[
				{
					"type":"box",
					"box":{
						"size":[
							0.5285500288009644,
							1,
							0.5285500288009644
						]
					}
				},
				{
					"type":"capsule",
					"capsule":{
						"height":0.6000000238418579,
						"radiusBottom":0.25,
						"radiusTop":0.25
					}
				},
				{
					"type":"cylinder",
					"cylinder":{
						"height":1,
						"radiusBottom":0.24762332439422607,
						"radiusTop":0.24762332439422607
					}
				},
				{
					"type":"sphere",
					"sphere":{
						"radius":0.3417187615099374
					}
				},
				{
					"type":"cylinder",
					"cylinder":{
						"height":1,
						"radiusBottom":0.25,
						"radiusTop":0.5
					}
				},
				{
					"type":"capsule",
					"capsule":{
						"height":0.6000000238418579,
						"radiusBottom":0.25,
						"radiusTop":0.4000000059604645
					}
				}
			]
		},
		"KHR_physics_rigid_bodies":{
			"physicsMaterials":[
				{
					"staticFriction":0.5,
					"dynamicFriction":0.5,
					"restitution":0
				}
			],
			"collisionFilters":[
				{
					"collisionSystems":[
						"System_0"
					],
					"collideWithSystems":[
						"System_0"
					]
				}
			]
		},
		"KHR_lights_punctual":{
			"lights":[
				{
					"color":[
						1,
						1,
						1
					],
					"intensity":54.35141306588226,
					"type":"point",
					"name":"Light.001"
				},
				{
					"color":[
						1,
						1,
						1
					],
					"intensity":54351.41306588226,
					"type":"point",
					"name":"Light"
				}
			]
		}
	},
	"scene":0,
	"scenes":[
		{
			"extras":{
				"ypui":{
					"expand_channels":1,
					"expand_mask_channels":0,
					"show_bake_targets":0,
					"show_channels":1,
					"show_layers":1,
					"show_materials":0,
					"show_object":0,
					"show_stats":0,
					"show_support":0,
					"show_test":0,
					"tree_name":"Ucupaint Plane"
				},
				"simple_animation_props":{},
				"khr_physics_importer_props":{},
				"khr_physics_exporter_props":{
					"enabled":1
				},
				"khr_physics_scene_viewer_props":{},
				"ve_edit":{}
			},
			"name":"Scene",
			"nodes":[
				0,
				1,
				4,
				5,
				6,
				7,
				8,
				9,
				10,
				11,
				12,
				14
			]
		}
	],
	"nodes":[
		{
			"extensions":{
				"KHR_physics_rigid_bodies":{
					"motion":{
						"mass":1
					},
					"collider":{
						"geometry":{
							"shape":0
						},
						"physicsMaterial":0,
						"collisionFilter":0
					}
				}
			},
			"extras":{
				"khr_physics_extra_props":{}
			},
			"mesh":0,
			"name":"DynamicBox",
			"translation":[
				1.715569019317627,
				6.361261367797852,
				1.5413397550582886
			]
		},
		{
			"extensions":{
				"KHR_physics_rigid_bodies":{
					"motion":{
						"mass":1
					},
					"collider":{
						"geometry":{
							"shape":1
						},
						"physicsMaterial":0,
						"collisionFilter":0
					}
				}
			},
			"extras":{
				"khr_physics_extra_props":{
					"cone_capsule_radius_bottom":0.25,
					"cone_capsule_radius_top":0.25,
					"cone_capsule_height":0.6000000238418579,
					"cone_capsule_override":0
				}
			},
			"mesh":1,
			"name":"DynamicCapsule",
			"translation":[
				-1.0987887382507324,
				6.361261367797852,
				1.5413397550582886
			]
		},
		{
			"mesh":2,
			"name":"physicsMeshDataNode",
			"rotation":[
				0,
				0,
				0,
				1
			],
			"translation":[
				0,
				0,
				0
			]
		},
		{
			"extensions":{
				"KHR_physics_rigid_bodies":{
					"collider":{
						"geometry":{
							"convexHull":true,
							"node":2
						},
						"physicsMaterial":0,
						"collisionFilter":0
					}
				}
			},
			"extras":{
				"khr_physics_extra_props":{
					"non_renderable":1
				}
			},
			"name":"MonkeyConvex"
		},
		{
			"children":[
				3
			],
			"extensions":{
				"KHR_physics_rigid_bodies":{
					"motion":{
						"mass":1
					}
				}
			},
			"extras":{
				"khr_physics_extra_props":{}
			},
			"mesh":3,
			"name":"MonkeyMesh",
			"translation":[
				-3.8481407165527344,
				7.701456069946289,
				3.195648193359375
			]
		},
		{
			"extensions":{
				"KHR_physics_rigid_bodies":{
					"motion":{
						"mass":1
					},
					"collider":{
						"geometry":{
							"shape":2
						},
						"physicsMaterial":0,
						"collisionFilter":0
					}
				}
			},
			"extras":{
				"khr_physics_extra_props":{
					"cone_capsule_radius_bottom":0.24762332439422607,
					"cone_capsule_radius_top":0.24762332439422607,
					"cone_capsule_height":1.0,
					"cone_capsule_override":0
				}
			},
			"mesh":4,
			"name":"DynamicCylinder",
			"translation":[
				0.31251269578933716,
				6.361261367797852,
				1.5413397550582886
			]
		},
		{
			"extensions":{
				"KHR_physics_rigid_bodies":{
					"motion":{
						"mass":1
					},
					"collider":{
						"geometry":{
							"shape":3
						},
						"physicsMaterial":0,
						"collisionFilter":0
					}
				}
			},
			"extras":{
				"khr_physics_extra_props":{}
			},
			"mesh":5,
			"name":"DynamicSphere",
			"translation":[
				-2.7134361267089844,
				8.563397407531738,
				1.7596192359924316
			]
		},
		{
			"extensions":{
				"KHR_lights_punctual":{
					"light":0
				}
			},
			"name":"Light.001",
			"rotation":[
				-0.28416627645492554,
				0.7269423007965088,
				0.34203392267227173,
				0.5232754945755005
			],
			"translation":[
				6.598835468292236,
				7.778873920440674,
				-0.7244230508804321
			]
		},
		{
			"camera":0,
			"name":"Camera.001",
			"rotation":[
				-0.00025008749798871577,
				-0.9927065372467041,
				-0.1204865351319313,
				0.004090157337486744
			],
			"translation":[
				-0.028158361092209816,
				5.093292236328125,
				-14.084538459777832
			]
		},
		{
			"extensions":{
				"KHR_physics_rigid_bodies":{
					"motion":{
						"mass":1
					},
					"collider":{
						"geometry":{
							"shape":4
						},
						"physicsMaterial":0,
						"collisionFilter":0
					}
				}
			},
			"extras":{
				"khr_physics_extra_props":{
					"cone_capsule_radius_bottom":0.25,
					"cone_capsule_radius_top":0.5,
					"cone_capsule_height":1.0,
					"cone_capsule_override":1
				}
			},
			"mesh":6,
			"name":"DynamicCone",
			"translation":[
				0.31251269578933716,
				8.051090240478516,
				1.5413397550582886
			]
		},
		{
			"extensions":{
				"KHR_physics_rigid_bodies":{
					"motion":{
						"mass":1
					},
					"collider":{
						"geometry":{
							"shape":5
						},
						"physicsMaterial":0,
						"collisionFilter":0
					}
				}
			},
			"extras":{
				"khr_physics_extra_props":{
					"cone_capsule_radius_bottom":0.25,
					"cone_capsule_radius_top":0.4000000059604645,
					"cone_capsule_height":0.6000000238418579,
					"cone_capsule_override":1
				}
			},
			"mesh":7,
			"name":"DynamicTaperedCapsule",
			"translation":[
				-1.0987887382507324,
				7.934582710266113,
				1.5413397550582886
			]
		},
		{
			"extensions":{
				"KHR_lights_punctual":{
					"light":1
				}
			},
			"name":"Light",
			"rotation":[
				-0.28416627645492554,
				0.7269423007965088,
				0.34203392267227173,
				0.5232754945755005
			],
			"translation":[
				4.076245307922363,
				5.903861999511719,
				-1.0054539442062378
			]
		},
		{
			"camera":1,
			"name":"Camera",
			"rotation":[
				-0.20997299253940582,
				0.3857799470424652,
				0.09062844514846802,
				0.8937962055206299
			],
			"translation":[
				7.358891487121582,
				4.958309173583984,
				6.925790786743164
			]
		},
		{
			"mesh":8,
			"name":"physicsMeshDataNode",
			"rotation":[
				0,
				0,
				0,
				1
			],
			"translation":[
				0,
				0,
				0
			]
		},
		{
			"extensions":{
				"KHR_physics_rigid_bodies":{
					"collider":{
						"geometry":{
							"convexHull":false,
							"node":13
						},
						"physicsMaterial":0,
						"collisionFilter":0
					}
				}
			},
			"extras":{
				"khr_physics_extra_props":{
					"non_renderable":0
				}
			},
			"mesh":8,
			"name":"Plane",
			"rotation":[
				0.17656008899211884,
				0,
				0,
				0.9842898845672607
			],
			"scale":[
				7.060970783233643,
				7.060970783233643,
				7.060970783233643
			],
			"translation":[
				-0.1980622261762619,
				4.786191940307617,
				5.224239349365234
			]
		}
	],
	"cameras":[
		{
			"name":"Camera.001",
			"perspective":{
				"aspectRatio":1.7777777777777777,
				"yfov":0.39959651231765747,
				"zfar":1000,
				"znear":0.10000000149011612
			},
			"type":"perspective"
		},
		{
			"name":"Camera",
			"perspective":{
				"aspectRatio":1.7777777777777777,
				"yfov":0.39959652046304894,
				"zfar":100,
				"znear":0.10000000149011612
			},
			"type":"perspective"
		}
	],
	"materials":[
		{
			"doubleSided":true,
			"extras":{
				"yp":{
					"active_ypaint_node":""
				}
			},
			"name":"Yellowish",
			"pbrMetallicRoughness":{
				"baseColorFactor":[
					0.8000000715255737,
					0.7555356621742249,
					0.0002703802892938256,
					1
				],
				"metallicFactor":0.5,
				"roughnessFactor":0.800000011920929
			}
		},
		{
			"doubleSided":true,
			"extras":{
				"yp":{
					"active_ypaint_node":"Group"
				}
			},
			"name":"Plane",
			"pbrMetallicRoughness":{
				"baseColorTexture":{
					"index":0
				},
				"metallicFactor":0,
				"roughnessFactor":0.5
			}
		}
	],
	"meshes":[
		{
			"name":"Cube.001",
			"primitives":[
				{
					"attributes":{
						"POSITION":0,
						"NORMAL":1,
						"TEXCOORD_0":2
					},
					"indices":3,
					"material":0
				}
			]
		},
		{
			"name":"Cylinder.001",
			"primitives":[
				{
					"attributes":{
						"POSITION":4,
						"NORMAL":5
					},
					"indices":6,
					"material":0
				}
			]
		},
		{
			"name":"Suzanne.001",
			"primitives":[
				{
					"attributes":{
						"POSITION":7,
						"NORMAL":8,
						"TEXCOORD_0":9
					},
					"indices":10,
					"material":0
				}
			]
		},
		{
			"name":"Suzanne",
			"primitives":[
				{
					"attributes":{
						"POSITION":11,
						"NORMAL":12,
						"TEXCOORD_0":13
					},
					"indices":14,
					"material":0
				}
			]
		},
		{
			"name":"Cylinder",
			"primitives":[
				{
					"attributes":{
						"POSITION":15,
						"NORMAL":16,
						"TEXCOORD_0":17
					},
					"indices":18,
					"material":0
				}
			]
		},
		{
			"name":"Icosphere",
			"primitives":[
				{
					"attributes":{
						"POSITION":19,
						"NORMAL":20,
						"TEXCOORD_0":21
					},
					"indices":22,
					"material":0
				}
			]
		},
		{
			"name":"Cylinder.005",
			"primitives":[
				{
					"attributes":{
						"POSITION":23,
						"NORMAL":24
					},
					"indices":25,
					"material":0
				}
			]
		},
		{
			"name":"Cylinder.007",
			"primitives":[
				{
					"attributes":{
						"POSITION":26,
						"NORMAL":27
					},
					"indices":28,
					"material":0
				}
			]
		},
		{
			"name":"Plane",
			"primitives":[
				{
					"attributes":{
						"POSITION":29,
						"NORMAL":30,
						"TEXCOORD_0":31
					},
					"indices":32,
					"material":1
				}
			]
		}
	],
	"textures":[
		{
			"sampler":0,
			"source":0
		}
	],
	"images":[
		{
			"bufferView":33,
			"mimeType":"image/png",
			"name":"Ucupaint Plane Color"
		}
	],
	"accessors":[
		{
			"bufferView":0,
			"componentType":5126,
			"count":24,
			"max":[
				0.2642750144004822,
				0.5,
				0.2642750144004822
			],
			"min":[
				-0.2642750144004822,
				-0.5,
				-0.2642750144004822
			],
			"type":"VEC3"
		},
		{
			"bufferView":1,
			"componentType":5126,
			"count":24,
			"type":"VEC3"
		},
		{
			"bufferView":2,
			"componentType":5126,
			"count":24,
			"type":"VEC2"
		},
		{
			"bufferView":3,
			"componentType":5123,
			"count":36,
			"type":"SCALAR"
		},
		{
			"bufferView":4,
			"componentType":5126,
			"count":682,
			"max":[
				0.25,
				0.550000011920929,
				0.2499999850988388
			],
			"min":[
				-0.2499999850988388,
				-0.550000011920929,
				-0.2499999850988388
			],
			"type":"VEC3"
		},
		{
			"bufferView":5,
			"componentType":5126,
			"count":682,
			"type":"VEC3"
		},
		{
			"bufferView":6,
			"componentType":5123,
			"count":4080,
			"type":"SCALAR"
		},
		{
			"bufferView":7,
			"componentType":5126,
			"count":190,
			"max":[
				0.5531045794487,
				0.3982353210449219,
				0.3445051610469818
			],
			"min":[
				-0.5531045794487,
				-0.3982353210449219,
				-0.3445051610469818
			],
			"type":"VEC3"
		},
		{
			"bufferView":8,
			"componentType":5126,
			"count":190,
			"type":"VEC3"
		},
		{
			"bufferView":9,
			"componentType":5126,
			"count":190,
			"type":"VEC2"
		},
		{
			"bufferView":10,
			"componentType":5123,
			"count":384,
			"type":"SCALAR"
		},
		{
			"bufferView":11,
			"componentType":5126,
			"count":556,
			"max":[
				0.552428126335144,
				0.36338913440704346,
				0.2248796969652176
			],
			"min":[
				-0.5537810325622559,
				-0.4330815076828003,
				-0.4641306400299072
			],
			"type":"VEC3"
		},
		{
			"bufferView":12,
			"componentType":5126,
			"count":556,
			"type":"VEC3"
		},
		{
			"bufferView":13,
			"componentType":5126,
			"count":556,
			"type":"VEC2"
		},
		{
			"bufferView":14,
			"componentType":5123,
			"count":2904,
			"type":"SCALAR"
		},
		{
			"bufferView":15,
			"componentType":5126,
			"count":130,
			"max":[
				0.24762332439422607,
				0.5,
				0.24762332439422607
			],
			"min":[
				-0.24762332439422607,
				-0.5,
				-0.24762332439422607
			],
			"type":"VEC3"
		},
		{
			"bufferView":16,
			"componentType":5126,
			"count":130,
			"type":"VEC3"
		},
		{
			"bufferView":17,
			"componentType":5126,
			"count":130,
			"type":"VEC2"
		},
		{
			"bufferView":18,
			"componentType":5123,
			"count":372,
			"type":"SCALAR"
		},
		{
			"bufferView":19,
			"componentType":5126,
			"count":285,
			"max":[
				0.3389868140220642,
				0.34162437915802,
				0.3396261930465698
			],
			"min":[
				-0.3389868140220642,
				-0.34162437915802,
				-0.3396261930465698
			],
			"type":"VEC3"
		},
		{
			"bufferView":20,
			"componentType":5126,
			"count":285,
			"type":"VEC3"
		},
		{
			"bufferView":21,
			"componentType":5126,
			"count":285,
			"type":"VEC2"
		},
		{
			"bufferView":22,
			"componentType":5123,
			"count":1440,
			"type":"SCALAR"
		},
		{
			"bufferView":23,
			"componentType":5126,
			"count":64,
			"max":[
				0.5,
				0.5,
				0.5
			],
			"min":[
				-0.5,
				-0.5,
				-0.5
			],
			"type":"VEC3"
		},
		{
			"bufferView":24,
			"componentType":5126,
			"count":64,
			"type":"VEC3"
		},
		{
			"bufferView":25,
			"componentType":5123,
			"count":372,
			"type":"SCALAR"
		},
		{
			"bufferView":26,
			"componentType":5126,
			"count":682,
			"max":[
				0.4000000059604645,
				0.7000000476837158,
				0.40000003576278687
			],
			"min":[
				-0.40000003576278687,
				-0.550000011920929,
				-0.40000003576278687
			],
			"type":"VEC3"
		},
		{
			"bufferView":27,
			"componentType":5126,
			"count":682,
			"type":"VEC3"
		},
		{
			"bufferView":28,
			"componentType":5123,
			"count":4080,
			"type":"SCALAR"
		},
		{
			"bufferView":29,
			"componentType":5126,
			"count":2579,
			"max":[
				1,
				0,
				1
			],
			"min":[
				-1,
				-0.22154705226421356,
				-1
			],
			"type":"VEC3"
		},
		{
			"bufferView":30,
			"componentType":5126,
			"count":2579,
			"type":"VEC3"
		},
		{
			"bufferView":31,
			"componentType":5126,
			"count":2579,
			"type":"VEC2"
		},
		{
			"bufferView":32,
			"componentType":5123,
			"count":6534,
			"type":"SCALAR"
		}
	],
	"bufferViews":[
		{
			"buffer":0,
			"byteLength":288,
			"byteOffset":0,
			"target":34962
		},
		{
			"buffer":0,
			"byteLength":288,
			"byteOffset":288,
			"target":34962
		},
		{
			"buffer":0,
			"byteLength":192,
			"byteOffset":576,
			"target":34962
		},
		{
			"buffer":0,
			"byteLength":72,
			"byteOffset":768,
			"target":34963
		},
		{
			"buffer":0,
			"byteLength":8184,
			"byteOffset":840,
			"target":34962
		},
		{
			"buffer":0,
			"byteLength":8184,
			"byteOffset":9024,
			"target":34962
		},
		{
			"buffer":0,
			"byteLength":8160,
			"byteOffset":17208,
			"target":34963
		},
		{
			"buffer":0,
			"byteLength":2280,
			"byteOffset":25368,
			"target":34962
		},
		{
			"buffer":0,
			"byteLength":2280,
			"byteOffset":27648,
			"target":34962
		},
		{
			"buffer":0,
			"byteLength":1520,
			"byteOffset":29928,
			"target":34962
		},
		{
			"buffer":0,
			"byteLength":768,
			"byteOffset":31448,
			"target":34963
		},
		{
			"buffer":0,
			"byteLength":6672,
			"byteOffset":32216,
			"target":34962
		},
		{
			"buffer":0,
			"byteLength":6672,
			"byteOffset":38888,
			"target":34962
		},
		{
			"buffer":0,
			"byteLength":4448,
			"byteOffset":45560,
			"target":34962
		},
		{
			"buffer":0,
			"byteLength":5808,
			"byteOffset":50008,
			"target":34963
		},
		{
			"buffer":0,
			"byteLength":1560,
			"byteOffset":55816,
			"target":34962
		},
		{
			"buffer":0,
			"byteLength":1560,
			"byteOffset":57376,
			"target":34962
		},
		{
			"buffer":0,
			"byteLength":1040,
			"byteOffset":58936,
			"target":34962
		},
		{
			"buffer":0,
			"byteLength":744,
			"byteOffset":59976,
			"target":34963
		},
		{
			"buffer":0,
			"byteLength":3420,
			"byteOffset":60720,
			"target":34962
		},
		{
			"buffer":0,
			"byteLength":3420,
			"byteOffset":64140,
			"target":34962
		},
		{
			"buffer":0,
			"byteLength":2280,
			"byteOffset":67560,
			"target":34962
		},
		{
			"buffer":0,
			"byteLength":2880,
			"byteOffset":69840,
			"target":34963
		},
		{
			"buffer":0,
			"byteLength":768,
			"byteOffset":72720,
			"target":34962
		},
		{
			"buffer":0,
			"byteLength":768,
			"byteOffset":73488,
			"target":34962
		},
		{
			"buffer":0,
			"byteLength":744,
			"byteOffset":74256,
			"target":34963
		},
		{
			"buffer":0,
			"byteLength":8184,
			"byteOffset":75000,
			"target":34962
		},
		{
			"buffer":0,
			"byteLength":8184,
			"byteOffset":83184,
			"target":34962
		},
		{
			"buffer":0,
			"byteLength":8160,
			"byteOffset":91368,
			"target":34963
		},
		{
			"buffer":0,
			"byteLength":30948,
			"byteOffset":99528,
			"target":34962
		},
		{
			"buffer":0,
			"byteLength":30948,
			"byteOffset":130476,
			"target":34962
		},
		{
			"buffer":0,
			"byteLength":20632,
			"byteOffset":161424,
			"target":34962
		},
		{
			"buffer":0,
			"byteLength":13068,
			"byteOffset":182056,
			"target":34963
		},
		{
			"buffer":0,
			"byteLength":1834389,
			"byteOffset":195124
		}
	],
	"samplers":[
		{
			"magFilter":9729,
			"minFilter":9987
		}
	],
	"buffers":[
		{
			"byteLength":2029516,
			"uri":"data:application/octet-stream;base64,"
		}
	]
}
